<svg width="14" height="14" viewBox="0 0 14 14" fill="none" xmlns="http://www.w3.org/2000/svg">
<path fill-rule="evenodd" clip-rule="evenodd" d="M6.60754 1.35753C7.01759 0.947475 7.68241 0.947475 8.09246 1.35753L12.9925 6.25753C13.0931 6.3582 13.1691 6.47422 13.2203 6.59807C13.2717 6.72187 13.3 6.85762 13.3 6.99999C13.3 7.14236 13.2717 7.27811 13.2203 7.40191C13.1695 7.52484 13.0943 7.64007 12.9947 7.74022C12.9939 7.74096 12.9932 7.74171 12.9925 7.74245C12.9923 7.74257 12.9922 7.74268 12.9921 7.7428L8.09246 12.6425C7.68241 13.0525 7.01759 13.0525 6.60754 12.6425C6.19749 12.2324 6.19749 11.5676 6.60754 11.1575L9.71508 8.04999H2.04167C1.46177 8.04999 0.991669 7.57989 0.991669 6.99999C0.991669 6.42009 1.46177 5.94999 2.04167 5.94999H9.71508L6.60754 2.84245C6.19749 2.4324 6.19749 1.76758 6.60754 1.35753Z" fill="#0C4789"/>
</svg>
